<mxfile host="app.diagrams.net" modified="2024-04-11T20:44:42.030Z" agent="Mozilla/5.0 (Macintosh; Intel Mac OS X 10_15_7) AppleWebKit/605.1.15 (KHTML, like Gecko) Version/17.4.1 Safari/605.1.15" etag="OhXrFvyANLzOIGXmZ2L5" version="24.2.3" type="device">
  <diagram name="Page-1" id="-cqcoEwt4IE6obiHyd0c">
    <mxGraphModel dx="1037" dy="560" grid="1" gridSize="10" guides="1" tooltips="1" connect="1" arrows="1" fold="1" page="1" pageScale="1" pageWidth="827" pageHeight="1169" math="0" shadow="0">
      <root>
        <mxCell id="0" />
        <mxCell id="1" parent="0" />
        <mxCell id="REYlh8SwJ1OCplsdW4Qx-6" style="edgeStyle=orthogonalEdgeStyle;rounded=0;orthogonalLoop=1;jettySize=auto;html=1;" edge="1" parent="1" source="REYlh8SwJ1OCplsdW4Qx-1" target="REYlh8SwJ1OCplsdW4Qx-5">
          <mxGeometry relative="1" as="geometry" />
        </mxCell>
        <mxCell id="REYlh8SwJ1OCplsdW4Qx-1" value="Manager" style="shape=umlActor;verticalLabelPosition=bottom;verticalAlign=top;html=1;" vertex="1" parent="1">
          <mxGeometry x="100" y="360" width="70" height="120" as="geometry" />
        </mxCell>
        <mxCell id="REYlh8SwJ1OCplsdW4Qx-7" style="edgeStyle=orthogonalEdgeStyle;rounded=0;orthogonalLoop=1;jettySize=auto;html=1;entryX=0.5;entryY=1;entryDx=0;entryDy=0;" edge="1" parent="1" source="REYlh8SwJ1OCplsdW4Qx-4" target="REYlh8SwJ1OCplsdW4Qx-5">
          <mxGeometry relative="1" as="geometry" />
        </mxCell>
        <mxCell id="REYlh8SwJ1OCplsdW4Qx-4" value="Customer" style="shape=umlActor;verticalLabelPosition=bottom;verticalAlign=top;html=1;" vertex="1" parent="1">
          <mxGeometry x="345" y="570" width="70" height="120" as="geometry" />
        </mxCell>
        <mxCell id="REYlh8SwJ1OCplsdW4Qx-5" value="EZElectronics" style="ellipse;whiteSpace=wrap;html=1;" vertex="1" parent="1">
          <mxGeometry x="320" y="380" width="120" height="80" as="geometry" />
        </mxCell>
        <mxCell id="REYlh8SwJ1OCplsdW4Qx-11" style="edgeStyle=orthogonalEdgeStyle;rounded=0;orthogonalLoop=1;jettySize=auto;html=1;entryX=1;entryY=0.5;entryDx=0;entryDy=0;" edge="1" parent="1" source="REYlh8SwJ1OCplsdW4Qx-8" target="REYlh8SwJ1OCplsdW4Qx-5">
          <mxGeometry relative="1" as="geometry" />
        </mxCell>
        <mxCell id="REYlh8SwJ1OCplsdW4Qx-8" value="Payment Service" style="shape=umlActor;verticalLabelPosition=bottom;verticalAlign=top;html=1;" vertex="1" parent="1">
          <mxGeometry x="570" y="360" width="70" height="120" as="geometry" />
        </mxCell>
      </root>
    </mxGraphModel>
  </diagram>
</mxfile>
